Coordinates
version=1
nRows=24
nColumns=38
inDegrees=no

Units are S.I. units (second, meters, Newtons, ...)
If the header above contains a line with 'inDegrees', this indicates whether rotational values are in degrees (yes) or radians (no).

endheader
time	pelvis_tilt	pelvis_list	pelvis_rotation	pelvis_tx	pelvis_ty	pelvis_tz	hip_flexion_r	hip_adduction_r	hip_rotation_r	knee_angle_r	ankle_angle_r	subtalar_angle_r	mtp_angle_r	hip_flexion_l	hip_adduction_l	hip_rotation_l	knee_angle_l	ankle_angle_l	subtalar_angle_l	mtp_angle_l	lumbar_extension	lumbar_bending	lumbar_rotation	arm_flex_r	arm_add_r	arm_rot_r	elbow_flex_r	pro_sup_r	wrist_flex_r	wrist_dev_r	arm_flex_l	arm_add_l	arm_rot_l	elbow_flex_l	pro_sup_l	wrist_flex_l	wrist_dev_l
0.81	-1.52063	1.52017	0.0586505	0.717698	1.19317	0.923721	0.430852	-0.0493872	-0.250156	0.417811	-0.295959	0	0	-0.310927	-0.102464	-0.138096	0.345633	-0.152498	0	0	-0.107761	0.124451	-0.196609	-0.0471889	-0.291943	0.237267	0.740492	1.5708	0	0	0.0151133	-0.221876	0.0815479	0.898757	1.5708	0	0
0.82	-1.56435	1.51786	0.107282	0.716167	1.18107	0.923863	0.42436	-0.0461365	-0.262929	0.42125	-0.312444	0	0	-0.309167	-0.110413	-0.13491	0.36531	-0.159699	0	0	-0.0984235	0.126887	-0.202432	-0.052118	-0.289894	0.236641	0.738307	1.5708	0	0	0.00432203	-0.217892	0.0810841	0.888257	1.5708	0	0
0.83	-1.58403	1.50628	0.12899	0.715561	1.16861	0.922379	0.421854	-0.0372125	-0.285232	0.439464	-0.318888	0	0	-0.265463	-0.190781	-0.331508	0.510505	-0.176023	0	0	-0.0883625	0.141384	-0.206106	-0.0656158	-0.300462	0.239909	0.758405	1.5708	0	0	-0.0126885	-0.210416	0.0771882	0.888807	1.5708	0	0
0.84	-1.56772	1.51284	0.118074	0.712844	1.15701	0.925145	0.409036	-0.0407789	-0.292541	0.442313	-0.330054	0	0	-0.302765	-0.127063	-0.128124	0.417184	-0.183462	0	0	-0.0840023	0.131562	-0.213929	-0.0565191	-0.289074	0.249607	0.731839	1.56281	0	0	-0.0186468	-0.211145	0.0809861	0.866472	1.5708	0	0
0.85	-1.53899	1.50873	0.0908481	0.710981	1.14518	0.926311	0.400065	-0.0355215	-0.300948	0.45477	-0.33316	0	0	-0.29717	-0.136849	-0.124243	0.451012	-0.194734	0	0	-0.0804842	0.135651	-0.216788	-0.0587106	-0.287126	0.249506	0.729702	1.56586	0	0	-0.0303917	-0.207577	0.0801868	0.85673	1.5708	0	0
0.86	-1.53059	1.50381	0.0820535	0.708878	1.13348	0.927602	0.394727	-0.0294135	-0.307523	0.473261	-0.329458	0	0	-0.287559	-0.146959	-0.118627	0.490239	-0.209137	0	0	-0.0759387	0.140206	-0.214773	-0.0634573	-0.284375	0.243061	0.7289	1.5708	0	0	-0.0394327	-0.204949	0.0856271	0.84421	1.5708	0	0
0.87	-1.52282	1.49787	0.0721601	0.706495	1.12197	0.929097	0.389309	-0.0208105	-0.312043	0.490708	-0.323049	0	0	-0.275176	-0.158006	-0.111933	0.534776	-0.224649	0	0	-0.0718151	0.145782	-0.210297	-0.0676924	-0.28383	0.241512	0.729349	1.5708	0	0	-0.0471965	-0.20189	0.0912629	0.830668	1.5708	0	0
0.88	-1.51304	1.49115	0.0588396	0.70387	1.11066	0.930678	0.380809	-0.00923837	-0.313726	0.500473	-0.31768	0	0	-0.259987	-0.169765	-0.10438	0.585	-0.239787	0	0	-0.0687091	0.151743	-0.204281	-0.0711287	-0.283832	0.241024	0.73076	1.5708	0	0	-0.0559246	-0.200496	0.0983379	0.819251	1.5708	0	0
0.89	-1.51126	1.48403	0.0524975	0.701099	1.09956	0.932159	0.369961	0.00402521	-0.314905	0.503177	-0.313792	0	0	-0.240936	-0.18203	-0.0967482	0.640788	-0.254139	0	0	-0.0656231	0.15808	-0.196961	-0.0748636	-0.284819	0.240686	0.73481	1.5708	0	0	-0.0647982	-0.198695	0.104002	0.809451	1.5708	0	0
0.9	-1.52865	1.47688	0.0638069	0.698193	1.08866	0.933299	0.358929	0.0181674	-0.314743	0.500662	-0.30954	0	0	-0.217103	-0.194266	-0.0899542	0.701143	-0.268887	0	0	-0.056294	0.164157	-0.193527	-0.0623231	-0.317539	0.337886	0.742013	1.44759	0	0	-0.0753562	-0.198344	0.111502	0.797094	1.5708	0	0
0.91	-1.54213	1.47071	0.0701343	0.695095	1.07812	0.934311	0.345112	0.0331059	-0.310588	0.490725	-0.307309	0	0	-0.191117	-0.205034	-0.0822585	0.763807	-0.281029	0	0	-0.0573053	0.169418	-0.17496	-0.0850975	-0.293989	0.24947	0.754035	1.56362	0	0	-0.0809046	-0.196744	0.118497	0.794143	1.5708	0	0
0.92	-1.55328	1.46532	0.0752006	0.69223	1.06774	0.93506	0.33093	0.0460258	-0.309721	0.481166	-0.303008	0	0	-0.163296	-0.214615	-0.0727421	0.828565	-0.286294	0	0	-0.0544427	0.173679	-0.16643	-0.0874808	-0.299648	0.257265	0.76571	1.55395	0	0	-0.092313	-0.196932	0.121339	0.793148	1.5708	0	0
0.93	-1.56656	1.46112	0.0838384	0.689672	1.05756	0.935566	0.317322	0.0564066	-0.311659	0.472839	-0.297209	0	0	-0.133221	-0.222845	-0.0632096	0.895311	-0.28763	0	0	-0.0516473	0.176798	-0.15899	-0.0895363	-0.30603	0.265708	0.778366	1.54496	0	0	-0.103627	-0.197408	0.124055	0.793971	1.5708	0	0
0.94	-1.56054	1.45843	0.0744684	0.687438	1.04768	0.936138	0.301954	0.0643065	-0.315655	0.465949	-0.292241	0	0	-0.104265	-0.229375	-0.0541896	0.961697	-0.289361	0	0	-0.0518483	0.178202	-0.159626	-0.0808604	-0.315857	0.295238	0.785771	1.52399	0	0	-0.120285	-0.195951	0.113247	0.800668	1.5708	0	0
0.95	-1.55458	1.45649	0.0656819	0.685407	1.03808	0.936763	0.286801	0.0711828	-0.318567	0.459057	-0.286117	0	0	-0.0743754	-0.235008	-0.0469525	1.02711	-0.291124	0	0	-0.0535287	0.179622	-0.150924	-0.0831447	-0.317927	0.289293	0.79773	1.53112	0	0	-0.127332	-0.195915	0.116908	0.801796	1.5708	0	0
0.96	-1.52745	1.455	0.0369956	0.68358	1.02874	0.937749	0.268279	0.077298	-0.322075	0.450372	-0.280953	0	0	-0.0465811	-0.240047	-0.0412364	1.0894	-0.290674	0	0	-0.0585106	0.180371	-0.142847	-0.0824598	-0.319218	0.284506	0.80676	1.53452	0	0	-0.133361	-0.197902	0.123415	0.802936	1.5708	0	0
0.97	-1.48303	1.45389	-0.00796836	0.681839	1.01951	0.939107	0.245343	0.0834897	-0.324264	0.436504	-0.276989	0	0	-0.021422	-0.244335	-0.0372425	1.14669	-0.280889	0	0	-0.0659465	0.180662	-0.134103	-0.0809784	-0.32003	0.279444	0.813862	1.538	0	0	-0.136678	-0.201036	0.13372	0.802493	1.5708	0	0
0.98	-1.4323	1.45322	-0.0589111	0.68006	1.01039	0.940698	0.219891	0.0897345	-0.324275	0.418636	-0.275457	0	0	0.00198823	-0.247456	-0.0346051	1.19751	-0.263146	0	0	-0.0738618	0.180087	-0.125867	-0.0770388	-0.319897	0.275728	0.817302	1.54109	0	0	-0.138994	-0.20404	0.143388	0.800758	1.5708	0	0
0.99	-1.36718	1.45271	-0.12309	0.67841	1.00153	0.942442	0.191397	0.0958369	-0.32196	0.397217	-0.275252	0	0	0.0235731	-0.249243	-0.0318435	1.2427	-0.241851	0	0	-0.0835862	0.178769	-0.11882	-0.0710333	-0.319475	0.272813	0.819039	1.54413	0	0	-0.140933	-0.207815	0.153077	0.799849	1.5708	0	0
1	-1.11374	1.42044	-0.390173	0.675895	0.990185	0.944091	0.11337	0.132932	-0.307466	0.350014	-0.283024	0	0	0.0115419	-0.42774	-0.328681	1.3225	-0.318133	0	0	-0.127755	0.202202	-0.104649	-0.0589645	-0.361079	0.344516	0.858477	1.4588	0	0	-0.164497	-0.21248	0.148185	0.834231	1.5708	0	0
1.01	-1.22003	1.45149	-0.268978	0.675108	0.98404	0.94589	0.128764	0.10901	-0.304027	0.343251	-0.282207	0	0	0.0631229	-0.250183	-0.0298942	1.31682	-0.206942	0	0	-0.104729	0.173807	-0.104847	-0.0568754	-0.320657	0.272426	0.822498	1.5527	0	0	-0.146111	-0.217851	0.172429	0.803092	1.5708	0	0
1.02	-1.18794	1.45338	-0.3013	0.67359	0.975395	0.947022	0.107769	0.111692	-0.297154	0.327228	-0.276643	0	0	0.088927	-0.246985	-0.027344	1.34702	-0.195123	0	0	-0.102225	0.170112	-0.107797	-0.0240039	-0.355376	0.379905	0.819148	1.41866	0	0	-0.153654	-0.222056	0.178321	0.80092	1.5708	0	0
1.03	-0.98365	1.42156	-0.52189	0.670813	0.964115	0.948454	0.0352421	0.142565	-0.278286	0.284667	-0.286862	0	0	0.0783698	-0.420463	-0.309413	1.40297	-0.278251	0	0	-0.149106	0.187309	-0.088963	-0.0396606	-0.339956	0.298985	0.850769	1.56749	0	0	-0.18176	-0.221955	0.152248	0.844948	1.5708	0	0
1.04	-1.11553	1.45817	-0.37589	0.670413	0.958387	0.949209	0.0651511	0.115741	-0.280423	0.290083	-0.281844	0	0	0.137292	-0.238118	-0.0230693	1.38608	-0.183324	0	0	-0.113725	0.158184	-0.105774	-0.010131	-0.321848	0.307625	0.804545	1.5708	0	0	-0.176954	-0.225985	0.159068	0.819503	1.5708	0	0
